# xmcd
#
# Track frame offsets: 
#        150
#        21055
#        45642
#        69575
#        88422
#        104777
#        116840
#        141455
#        166822
#        188472
#        211305
#
# Disc length: 2964 seconds
#
# Revision: 6
# Processed by: cddbd v1.5.2PL0 Copyright (c) Steve Scherf et al.
# Submitted via: ExactAudioCopy v1.3
#
DISCID=a00b920b
DTITLE=西村由紀江 - 扉をあけよう
DYEAR=2003
DGENRE=Instrumental
TTITLE0=扉をあけよう
TTITLE1=伝えたいのに
TTITLE2=あなたがいるから
TTITLE3=自分との約束
TTITLE4=ほのかな灯り
TTITLE5=だんらんのとき
TTITLE6=空へ
TTITLE7=あきらめないで
TTITLE8=すれ違う心
TTITLE9=あなたらしく
TTITLE10=優しい時間
EXTD=YEAR: 2003
EXTT0=
EXTT1=
EXTT2=
EXTT3=
EXTT4=
EXTT5=
EXTT6=
EXTT7=
EXTT8=
EXTT9=
EXTT10=
PLAYORDER=
